<?xml version="1.0" encoding="utf-8" standalone="no"?>
<!DOCTYPE svg PUBLIC "-//W3C//DTD SVG 1.1//EN"
  "http://www.w3.org/Graphics/SVG/1.1/DTD/svg11.dtd">
<svg height="345.6pt" version="1.1" viewBox="0 0 460.8 345.6" width="460.8pt" xmlns="http://www.w3.org/2000/svg" xmlns:xlink="http://www.w3.org/1999/xlink">
 <metadata>
  <rdf:RDF xmlns:cc="http://creativecommons.org/ns#" xmlns:dc="http://purl.org/dc/elements/1.1/" xmlns:rdf="http://www.w3.org/1999/02/22-rdf-syntax-ns#">
   <cc:Work>
    <dc:type rdf:resource="http://purl.org/dc/dcmitype/StillImage"/>
    <dc:date>2022-01-09T03:25:42.770377</dc:date>
    <dc:format>image/svg+xml</dc:format>
    <dc:creator>
     <cc:Agent>
      <dc:title>Matplotlib v3.4.2, https://matplotlib.org/</dc:title>
     </cc:Agent>
    </dc:creator>
   </cc:Work>
  </rdf:RDF>
 </metadata>
 <defs>
  <style type="text/css">*{stroke-linecap:butt;stroke-linejoin:round;}</style>
 </defs>
 <g id="figure_1">
  <g id="patch_1">
   <path d="M 0 345.6 
L 460.8 345.6 
L 460.8 0 
L 0 0 
z
" style="fill:#ffffff;"/>
  </g>
  <g id="axes_1">
   <g id="patch_2">
    <path d="M 57.6 307.584 
L 414.72 307.584 
L 414.72 41.472 
L 57.6 41.472 
z
" style="fill:#ffffff;"/>
   </g>
   <g id="patch_3">
    <path clip-path="url(#pe0f689e548)" d="M 73.832727 307.584 
L 80.757604 307.584 
L 80.757604 307.579791 
L 73.832727 307.579791 
z
" style="fill:#0504aa;opacity:0.7;"/>
   </g>
   <g id="patch_4">
    <path clip-path="url(#pe0f689e548)" d="M 81.979644 307.584 
L 88.904523 307.584 
L 88.904523 307.573009 
L 81.979644 307.573009 
z
" style="fill:#0504aa;opacity:0.7;"/>
   </g>
   <g id="patch_5">
    <path clip-path="url(#pe0f689e548)" d="M 90.126557 307.584 
L 97.051437 307.584 
L 97.051437 307.566929 
L 90.126557 307.566929 
z
" style="fill:#0504aa;opacity:0.7;"/>
   </g>
   <g id="patch_6">
    <path clip-path="url(#pe0f689e548)" d="M 98.273476 307.584 
L 105.198356 307.584 
L 105.198356 307.565993 
L 98.273476 307.565993 
z
" style="fill:#0504aa;opacity:0.7;"/>
   </g>
   <g id="patch_7">
    <path clip-path="url(#pe0f689e548)" d="M 106.420388 307.584 
L 113.345265 307.584 
L 113.345265 307.564668 
L 106.420388 307.564668 
z
" style="fill:#0504aa;opacity:0.7;"/>
   </g>
   <g id="patch_8">
    <path clip-path="url(#pe0f689e548)" d="M 114.567301 307.584 
L 121.492179 307.584 
L 121.492179 307.553911 
L 114.567301 307.553911 
z
" style="fill:#0504aa;opacity:0.7;"/>
   </g>
   <g id="patch_9">
    <path clip-path="url(#pe0f689e548)" d="M 122.714215 307.584 
L 129.639092 307.584 
L 129.639092 307.543777 
L 122.714215 307.543777 
z
" style="fill:#0504aa;opacity:0.7;"/>
   </g>
   <g id="patch_10">
    <path clip-path="url(#pe0f689e548)" d="M 130.861129 307.584 
L 137.786011 307.584 
L 137.786011 307.511428 
L 130.861129 307.511428 
z
" style="fill:#0504aa;opacity:0.7;"/>
   </g>
   <g id="patch_11">
    <path clip-path="url(#pe0f689e548)" d="M 139.008043 307.584 
L 145.932925 307.584 
L 145.932925 307.495915 
L 139.008043 307.495915 
z
" style="fill:#0504aa;opacity:0.7;"/>
   </g>
   <g id="patch_12">
    <path clip-path="url(#pe0f689e548)" d="M 147.154967 307.584 
L 154.079849 307.584 
L 154.079849 307.47939 
L 147.154967 307.47939 
z
" style="fill:#0504aa;opacity:0.7;"/>
   </g>
   <g id="patch_13">
    <path clip-path="url(#pe0f689e548)" d="M 155.30187 307.584 
L 162.226753 307.584 
L 162.226753 307.481261 
L 155.30187 307.481261 
z
" style="fill:#0504aa;opacity:0.7;"/>
   </g>
   <g id="patch_14">
    <path clip-path="url(#pe0f689e548)" d="M 163.448794 307.584 
L 170.373677 307.584 
L 170.373677 307.468477 
L 163.448794 307.468477 
z
" style="fill:#0504aa;opacity:0.7;"/>
   </g>
   <g id="patch_15">
    <path clip-path="url(#pe0f689e548)" d="M 171.595698 307.584 
L 178.52058 307.584 
L 178.52058 307.419524 
L 171.595698 307.419524 
z
" style="fill:#0504aa;opacity:0.7;"/>
   </g>
   <g id="patch_16">
    <path clip-path="url(#pe0f689e548)" d="M 179.742622 307.584 
L 186.667504 307.584 
L 186.667504 307.395904 
L 179.742622 307.395904 
z
" style="fill:#0504aa;opacity:0.7;"/>
   </g>
   <g id="patch_17">
    <path clip-path="url(#pe0f689e548)" d="M 187.889546 307.584 
L 194.814428 307.584 
L 194.814428 307.383198 
L 187.889546 307.383198 
z
" style="fill:#0504aa;opacity:0.7;"/>
   </g>
   <g id="patch_18">
    <path clip-path="url(#pe0f689e548)" d="M 196.036449 307.584 
L 202.961332 307.584 
L 202.961332 307.386628 
L 196.036449 307.386628 
z
" style="fill:#0504aa;opacity:0.7;"/>
   </g>
   <g id="patch_19">
    <path clip-path="url(#pe0f689e548)" d="M 204.183373 307.584 
L 211.108256 307.584 
L 211.108256 307.374 
L 204.183373 307.374 
z
" style="fill:#0504aa;opacity:0.7;"/>
   </g>
   <g id="patch_20">
    <path clip-path="url(#pe0f689e548)" d="M 212.330277 307.584 
L 219.255159 307.584 
L 219.255159 307.388109 
L 212.330277 307.388109 
z
" style="fill:#0504aa;opacity:0.7;"/>
   </g>
   <g id="patch_21">
    <path clip-path="url(#pe0f689e548)" d="M 220.477201 307.584 
L 227.402083 307.584 
L 227.402083 307.394034 
L 220.477201 307.394034 
z
" style="fill:#0504aa;opacity:0.7;"/>
   </g>
   <g id="patch_22">
    <path clip-path="url(#pe0f689e548)" d="M 228.624115 307.584 
L 235.548997 307.584 
L 235.548997 307.391071 
L 228.624115 307.391071 
z
" style="fill:#0504aa;opacity:0.7;"/>
   </g>
   <g id="patch_23">
    <path clip-path="url(#pe0f689e548)" d="M 236.771039 307.584 
L 243.695901 307.584 
L 243.695901 307.353109 
L 236.771039 307.353109 
z
" style="fill:#0504aa;opacity:0.7;"/>
   </g>
   <g id="patch_24">
    <path clip-path="url(#pe0f689e548)" d="M 244.917922 307.584 
L 251.842804 307.584 
L 251.842804 307.340481 
L 244.917922 307.340481 
z
" style="fill:#0504aa;opacity:0.7;"/>
   </g>
   <g id="patch_25">
    <path clip-path="url(#pe0f689e548)" d="M 253.064866 307.584 
L 259.989728 307.584 
L 259.989728 307.291684 
L 253.064866 307.291684 
z
" style="fill:#0504aa;opacity:0.7;"/>
   </g>
   <g id="patch_26">
    <path clip-path="url(#pe0f689e548)" d="M 261.21177 307.584 
L 268.136652 307.584 
L 268.136652 307.22753 
L 261.21177 307.22753 
z
" style="fill:#0504aa;opacity:0.7;"/>
   </g>
   <g id="patch_27">
    <path clip-path="url(#pe0f689e548)" d="M 269.358673 307.584 
L 276.283556 307.584 
L 276.283556 307.13017 
L 269.358673 307.13017 
z
" style="fill:#0504aa;opacity:0.7;"/>
   </g>
   <g id="patch_28">
    <path clip-path="url(#pe0f689e548)" d="M 277.505618 307.584 
L 284.43048 307.584 
L 284.43048 307.027041 
L 277.505618 307.027041 
z
" style="fill:#0504aa;opacity:0.7;"/>
   </g>
   <g id="patch_29">
    <path clip-path="url(#pe0f689e548)" d="M 285.652521 307.584 
L 292.577404 307.584 
L 292.577404 306.86919 
L 285.652521 306.86919 
z
" style="fill:#0504aa;opacity:0.7;"/>
   </g>
   <g id="patch_30">
    <path clip-path="url(#pe0f689e548)" d="M 293.799445 307.584 
L 300.724307 307.584 
L 300.724307 306.655916 
L 293.799445 306.655916 
z
" style="fill:#0504aa;opacity:0.7;"/>
   </g>
   <g id="patch_31">
    <path clip-path="url(#pe0f689e548)" d="M 301.946329 307.584 
L 308.871211 307.584 
L 308.871211 306.342787 
L 301.946329 306.342787 
z
" style="fill:#0504aa;opacity:0.7;"/>
   </g>
   <g id="patch_32">
    <path clip-path="url(#pe0f689e548)" d="M 310.093273 307.584 
L 317.018135 307.584 
L 317.018135 305.981719 
L 310.093273 305.981719 
z
" style="fill:#0504aa;opacity:0.7;"/>
   </g>
   <g id="patch_33">
    <path clip-path="url(#pe0f689e548)" d="M 318.240177 307.584 
L 325.165059 307.584 
L 325.165059 305.378378 
L 318.240177 305.378378 
z
" style="fill:#0504aa;opacity:0.7;"/>
   </g>
   <g id="patch_34">
    <path clip-path="url(#pe0f689e548)" d="M 326.387101 307.584 
L 333.311962 307.584 
L 333.311962 304.583902 
L 326.387101 304.583902 
z
" style="fill:#0504aa;opacity:0.7;"/>
   </g>
   <g id="patch_35">
    <path clip-path="url(#pe0f689e548)" d="M 334.533984 307.584 
L 341.458866 307.584 
L 341.458866 303.477311 
L 334.533984 303.477311 
z
" style="fill:#0504aa;opacity:0.7;"/>
   </g>
   <g id="patch_36">
    <path clip-path="url(#pe0f689e548)" d="M 342.680928 307.584 
L 349.60581 307.584 
L 349.60581 301.966154 
L 342.680928 301.966154 
z
" style="fill:#0504aa;opacity:0.7;"/>
   </g>
   <g id="patch_37">
    <path clip-path="url(#pe0f689e548)" d="M 350.827852 307.584 
L 357.752714 307.584 
L 357.752714 300.239697 
L 350.827852 300.239697 
z
" style="fill:#0504aa;opacity:0.7;"/>
   </g>
   <g id="patch_38">
    <path clip-path="url(#pe0f689e548)" d="M 358.974735 307.584 
L 365.899618 307.584 
L 365.899618 297.912004 
L 358.974735 297.912004 
z
" style="fill:#0504aa;opacity:0.7;"/>
   </g>
   <g id="patch_39">
    <path clip-path="url(#pe0f689e548)" d="M 367.12168 307.584 
L 374.046542 307.584 
L 374.046542 295.381795 
L 367.12168 295.381795 
z
" style="fill:#0504aa;opacity:0.7;"/>
   </g>
   <g id="patch_40">
    <path clip-path="url(#pe0f689e548)" d="M 375.268583 307.584 
L 382.193466 307.584 
L 382.193466 292.19212 
L 375.268583 292.19212 
z
" style="fill:#0504aa;opacity:0.7;"/>
   </g>
   <g id="patch_41">
    <path clip-path="url(#pe0f689e548)" d="M 383.415507 307.584 
L 390.340369 307.584 
L 390.340369 286.336602 
L 383.415507 286.336602 
z
" style="fill:#0504aa;opacity:0.7;"/>
   </g>
   <g id="patch_42">
    <path clip-path="url(#pe0f689e548)" d="M 391.56239 307.584 
L 398.487273 307.584 
L 398.487273 54.144 
L 391.56239 54.144 
z
" style="fill:#0504aa;opacity:0.7;"/>
   </g>
   <g id="matplotlib.axis_1">
    <g id="xtick_1">
     <g id="line2d_1">
      <defs>
       <path d="M 0 0 
L 0 3.5 
" id="m5988ab1b33" style="stroke:#000000;stroke-width:0.8;"/>
      </defs>
      <g>
       <use style="stroke:#000000;stroke-width:0.8;" x="124.661918" xlink:href="#m5988ab1b33" y="307.584"/>
      </g>
     </g>
     <g id="text_1">
      <!-- 0.2 -->
      <g transform="translate(116.710356 322.182437)scale(0.1 -0.1)">
       <defs>
        <path d="M 2034 4250 
Q 1547 4250 1301 3770 
Q 1056 3291 1056 2328 
Q 1056 1369 1301 889 
Q 1547 409 2034 409 
Q 2525 409 2770 889 
Q 3016 1369 3016 2328 
Q 3016 3291 2770 3770 
Q 2525 4250 2034 4250 
z
M 2034 4750 
Q 2819 4750 3233 4129 
Q 3647 3509 3647 2328 
Q 3647 1150 3233 529 
Q 2819 -91 2034 -91 
Q 1250 -91 836 529 
Q 422 1150 422 2328 
Q 422 3509 836 4129 
Q 1250 4750 2034 4750 
z
" id="DejaVuSans-30" transform="scale(0.015625)"/>
        <path d="M 684 794 
L 1344 794 
L 1344 0 
L 684 0 
L 684 794 
z
" id="DejaVuSans-2e" transform="scale(0.015625)"/>
        <path d="M 1228 531 
L 3431 531 
L 3431 0 
L 469 0 
L 469 531 
Q 828 903 1448 1529 
Q 2069 2156 2228 2338 
Q 2531 2678 2651 2914 
Q 2772 3150 2772 3378 
Q 2772 3750 2511 3984 
Q 2250 4219 1831 4219 
Q 1534 4219 1204 4116 
Q 875 4013 500 3803 
L 500 4441 
Q 881 4594 1212 4672 
Q 1544 4750 1819 4750 
Q 2544 4750 2975 4387 
Q 3406 4025 3406 3419 
Q 3406 3131 3298 2873 
Q 3191 2616 2906 2266 
Q 2828 2175 2409 1742 
Q 1991 1309 1228 531 
z
" id="DejaVuSans-32" transform="scale(0.015625)"/>
       </defs>
       <use xlink:href="#DejaVuSans-30"/>
       <use x="63.623047" xlink:href="#DejaVuSans-2e"/>
       <use x="95.410156" xlink:href="#DejaVuSans-32"/>
      </g>
     </g>
    </g>
    <g id="xtick_2">
     <g id="line2d_2">
      <g>
       <use style="stroke:#000000;stroke-width:0.8;" x="193.271017" xlink:href="#m5988ab1b33" y="307.584"/>
      </g>
     </g>
     <g id="text_2">
      <!-- 0.4 -->
      <g transform="translate(185.319455 322.182437)scale(0.1 -0.1)">
       <defs>
        <path d="M 2419 4116 
L 825 1625 
L 2419 1625 
L 2419 4116 
z
M 2253 4666 
L 3047 4666 
L 3047 1625 
L 3713 1625 
L 3713 1100 
L 3047 1100 
L 3047 0 
L 2419 0 
L 2419 1100 
L 313 1100 
L 313 1709 
L 2253 4666 
z
" id="DejaVuSans-34" transform="scale(0.015625)"/>
       </defs>
       <use xlink:href="#DejaVuSans-30"/>
       <use x="63.623047" xlink:href="#DejaVuSans-2e"/>
       <use x="95.410156" xlink:href="#DejaVuSans-34"/>
      </g>
     </g>
    </g>
    <g id="xtick_3">
     <g id="line2d_3">
      <g>
       <use style="stroke:#000000;stroke-width:0.8;" x="261.880116" xlink:href="#m5988ab1b33" y="307.584"/>
      </g>
     </g>
     <g id="text_3">
      <!-- 0.6 -->
      <g transform="translate(253.928554 322.182437)scale(0.1 -0.1)">
       <defs>
        <path d="M 2113 2584 
Q 1688 2584 1439 2293 
Q 1191 2003 1191 1497 
Q 1191 994 1439 701 
Q 1688 409 2113 409 
Q 2538 409 2786 701 
Q 3034 994 3034 1497 
Q 3034 2003 2786 2293 
Q 2538 2584 2113 2584 
z
M 3366 4563 
L 3366 3988 
Q 3128 4100 2886 4159 
Q 2644 4219 2406 4219 
Q 1781 4219 1451 3797 
Q 1122 3375 1075 2522 
Q 1259 2794 1537 2939 
Q 1816 3084 2150 3084 
Q 2853 3084 3261 2657 
Q 3669 2231 3669 1497 
Q 3669 778 3244 343 
Q 2819 -91 2113 -91 
Q 1303 -91 875 529 
Q 447 1150 447 2328 
Q 447 3434 972 4092 
Q 1497 4750 2381 4750 
Q 2619 4750 2861 4703 
Q 3103 4656 3366 4563 
z
" id="DejaVuSans-36" transform="scale(0.015625)"/>
       </defs>
       <use xlink:href="#DejaVuSans-30"/>
       <use x="63.623047" xlink:href="#DejaVuSans-2e"/>
       <use x="95.410156" xlink:href="#DejaVuSans-36"/>
      </g>
     </g>
    </g>
    <g id="xtick_4">
     <g id="line2d_4">
      <g>
       <use style="stroke:#000000;stroke-width:0.8;" x="330.489215" xlink:href="#m5988ab1b33" y="307.584"/>
      </g>
     </g>
     <g id="text_4">
      <!-- 0.8 -->
      <g transform="translate(322.537653 322.182437)scale(0.1 -0.1)">
       <defs>
        <path d="M 2034 2216 
Q 1584 2216 1326 1975 
Q 1069 1734 1069 1313 
Q 1069 891 1326 650 
Q 1584 409 2034 409 
Q 2484 409 2743 651 
Q 3003 894 3003 1313 
Q 3003 1734 2745 1975 
Q 2488 2216 2034 2216 
z
M 1403 2484 
Q 997 2584 770 2862 
Q 544 3141 544 3541 
Q 544 4100 942 4425 
Q 1341 4750 2034 4750 
Q 2731 4750 3128 4425 
Q 3525 4100 3525 3541 
Q 3525 3141 3298 2862 
Q 3072 2584 2669 2484 
Q 3125 2378 3379 2068 
Q 3634 1759 3634 1313 
Q 3634 634 3220 271 
Q 2806 -91 2034 -91 
Q 1263 -91 848 271 
Q 434 634 434 1313 
Q 434 1759 690 2068 
Q 947 2378 1403 2484 
z
M 1172 3481 
Q 1172 3119 1398 2916 
Q 1625 2713 2034 2713 
Q 2441 2713 2670 2916 
Q 2900 3119 2900 3481 
Q 2900 3844 2670 4047 
Q 2441 4250 2034 4250 
Q 1625 4250 1398 4047 
Q 1172 3844 1172 3481 
z
" id="DejaVuSans-38" transform="scale(0.015625)"/>
       </defs>
       <use xlink:href="#DejaVuSans-30"/>
       <use x="63.623047" xlink:href="#DejaVuSans-2e"/>
       <use x="95.410156" xlink:href="#DejaVuSans-38"/>
      </g>
     </g>
    </g>
    <g id="xtick_5">
     <g id="line2d_5">
      <g>
       <use style="stroke:#000000;stroke-width:0.8;" x="399.098314" xlink:href="#m5988ab1b33" y="307.584"/>
      </g>
     </g>
     <g id="text_5">
      <!-- 1.0 -->
      <g transform="translate(391.146752 322.182437)scale(0.1 -0.1)">
       <defs>
        <path d="M 794 531 
L 1825 531 
L 1825 4091 
L 703 3866 
L 703 4441 
L 1819 4666 
L 2450 4666 
L 2450 531 
L 3481 531 
L 3481 0 
L 794 0 
L 794 531 
z
" id="DejaVuSans-31" transform="scale(0.015625)"/>
       </defs>
       <use xlink:href="#DejaVuSans-31"/>
       <use x="63.623047" xlink:href="#DejaVuSans-2e"/>
       <use x="95.410156" xlink:href="#DejaVuSans-30"/>
      </g>
     </g>
    </g>
    <g id="text_6">
     <!-- Slack value -->
     <g transform="translate(207.64125 335.860562)scale(0.1 -0.1)">
      <defs>
       <path d="M 3425 4513 
L 3425 3897 
Q 3066 4069 2747 4153 
Q 2428 4238 2131 4238 
Q 1616 4238 1336 4038 
Q 1056 3838 1056 3469 
Q 1056 3159 1242 3001 
Q 1428 2844 1947 2747 
L 2328 2669 
Q 3034 2534 3370 2195 
Q 3706 1856 3706 1288 
Q 3706 609 3251 259 
Q 2797 -91 1919 -91 
Q 1588 -91 1214 -16 
Q 841 59 441 206 
L 441 856 
Q 825 641 1194 531 
Q 1563 422 1919 422 
Q 2459 422 2753 634 
Q 3047 847 3047 1241 
Q 3047 1584 2836 1778 
Q 2625 1972 2144 2069 
L 1759 2144 
Q 1053 2284 737 2584 
Q 422 2884 422 3419 
Q 422 4038 858 4394 
Q 1294 4750 2059 4750 
Q 2388 4750 2728 4690 
Q 3069 4631 3425 4513 
z
" id="DejaVuSans-53" transform="scale(0.015625)"/>
       <path d="M 603 4863 
L 1178 4863 
L 1178 0 
L 603 0 
L 603 4863 
z
" id="DejaVuSans-6c" transform="scale(0.015625)"/>
       <path d="M 2194 1759 
Q 1497 1759 1228 1600 
Q 959 1441 959 1056 
Q 959 750 1161 570 
Q 1363 391 1709 391 
Q 2188 391 2477 730 
Q 2766 1069 2766 1631 
L 2766 1759 
L 2194 1759 
z
M 3341 1997 
L 3341 0 
L 2766 0 
L 2766 531 
Q 2569 213 2275 61 
Q 1981 -91 1556 -91 
Q 1019 -91 701 211 
Q 384 513 384 1019 
Q 384 1609 779 1909 
Q 1175 2209 1959 2209 
L 2766 2209 
L 2766 2266 
Q 2766 2663 2505 2880 
Q 2244 3097 1772 3097 
Q 1472 3097 1187 3025 
Q 903 2953 641 2809 
L 641 3341 
Q 956 3463 1253 3523 
Q 1550 3584 1831 3584 
Q 2591 3584 2966 3190 
Q 3341 2797 3341 1997 
z
" id="DejaVuSans-61" transform="scale(0.015625)"/>
       <path d="M 3122 3366 
L 3122 2828 
Q 2878 2963 2633 3030 
Q 2388 3097 2138 3097 
Q 1578 3097 1268 2742 
Q 959 2388 959 1747 
Q 959 1106 1268 751 
Q 1578 397 2138 397 
Q 2388 397 2633 464 
Q 2878 531 3122 666 
L 3122 134 
Q 2881 22 2623 -34 
Q 2366 -91 2075 -91 
Q 1284 -91 818 406 
Q 353 903 353 1747 
Q 353 2603 823 3093 
Q 1294 3584 2113 3584 
Q 2378 3584 2631 3529 
Q 2884 3475 3122 3366 
z
" id="DejaVuSans-63" transform="scale(0.015625)"/>
       <path d="M 581 4863 
L 1159 4863 
L 1159 1991 
L 2875 3500 
L 3609 3500 
L 1753 1863 
L 3688 0 
L 2938 0 
L 1159 1709 
L 1159 0 
L 581 0 
L 581 4863 
z
" id="DejaVuSans-6b" transform="scale(0.015625)"/>
       <path id="DejaVuSans-20" transform="scale(0.015625)"/>
       <path d="M 191 3500 
L 800 3500 
L 1894 563 
L 2988 3500 
L 3597 3500 
L 2284 0 
L 1503 0 
L 191 3500 
z
" id="DejaVuSans-76" transform="scale(0.015625)"/>
       <path d="M 544 1381 
L 544 3500 
L 1119 3500 
L 1119 1403 
Q 1119 906 1312 657 
Q 1506 409 1894 409 
Q 2359 409 2629 706 
Q 2900 1003 2900 1516 
L 2900 3500 
L 3475 3500 
L 3475 0 
L 2900 0 
L 2900 538 
Q 2691 219 2414 64 
Q 2138 -91 1772 -91 
Q 1169 -91 856 284 
Q 544 659 544 1381 
z
M 1991 3584 
L 1991 3584 
z
" id="DejaVuSans-75" transform="scale(0.015625)"/>
       <path d="M 3597 1894 
L 3597 1613 
L 953 1613 
Q 991 1019 1311 708 
Q 1631 397 2203 397 
Q 2534 397 2845 478 
Q 3156 559 3463 722 
L 3463 178 
Q 3153 47 2828 -22 
Q 2503 -91 2169 -91 
Q 1331 -91 842 396 
Q 353 884 353 1716 
Q 353 2575 817 3079 
Q 1281 3584 2069 3584 
Q 2775 3584 3186 3129 
Q 3597 2675 3597 1894 
z
M 3022 2063 
Q 3016 2534 2758 2815 
Q 2500 3097 2075 3097 
Q 1594 3097 1305 2825 
Q 1016 2553 972 2059 
L 3022 2063 
z
" id="DejaVuSans-65" transform="scale(0.015625)"/>
      </defs>
      <use xlink:href="#DejaVuSans-53"/>
      <use x="63.476562" xlink:href="#DejaVuSans-6c"/>
      <use x="91.259766" xlink:href="#DejaVuSans-61"/>
      <use x="152.539062" xlink:href="#DejaVuSans-63"/>
      <use x="207.519531" xlink:href="#DejaVuSans-6b"/>
      <use x="265.429688" xlink:href="#DejaVuSans-20"/>
      <use x="297.216797" xlink:href="#DejaVuSans-76"/>
      <use x="356.396484" xlink:href="#DejaVuSans-61"/>
      <use x="417.675781" xlink:href="#DejaVuSans-6c"/>
      <use x="445.458984" xlink:href="#DejaVuSans-75"/>
      <use x="508.837891" xlink:href="#DejaVuSans-65"/>
     </g>
    </g>
   </g>
   <g id="matplotlib.axis_2">
    <g id="ytick_1">
     <g id="line2d_6">
      <path clip-path="url(#pe0f689e548)" d="M 57.6 307.584 
L 414.72 307.584 
" style="fill:none;stroke:#b0b0b0;stroke-linecap:square;stroke-opacity:0.75;stroke-width:0.8;"/>
     </g>
     <g id="line2d_7">
      <defs>
       <path d="M 0 0 
L -3.5 0 
" id="m22455c1a4d" style="stroke:#000000;stroke-width:0.8;"/>
      </defs>
      <g>
       <use style="stroke:#000000;stroke-width:0.8;" x="57.6" xlink:href="#m22455c1a4d" y="307.584"/>
      </g>
     </g>
     <g id="text_7">
      <!-- 0.0 -->
      <g transform="translate(34.696875 311.383219)scale(0.1 -0.1)">
       <use xlink:href="#DejaVuSans-30"/>
       <use x="63.623047" xlink:href="#DejaVuSans-2e"/>
       <use x="95.410156" xlink:href="#DejaVuSans-30"/>
      </g>
     </g>
    </g>
    <g id="ytick_2">
     <g id="line2d_8">
      <path clip-path="url(#pe0f689e548)" d="M 57.6 268.608533 
L 414.72 268.608533 
" style="fill:none;stroke:#b0b0b0;stroke-linecap:square;stroke-opacity:0.75;stroke-width:0.8;"/>
     </g>
     <g id="line2d_9">
      <g>
       <use style="stroke:#000000;stroke-width:0.8;" x="57.6" xlink:href="#m22455c1a4d" y="268.608533"/>
      </g>
     </g>
     <g id="text_8">
      <!-- 0.5 -->
      <g transform="translate(34.696875 272.407752)scale(0.1 -0.1)">
       <defs>
        <path d="M 691 4666 
L 3169 4666 
L 3169 4134 
L 1269 4134 
L 1269 2991 
Q 1406 3038 1543 3061 
Q 1681 3084 1819 3084 
Q 2600 3084 3056 2656 
Q 3513 2228 3513 1497 
Q 3513 744 3044 326 
Q 2575 -91 1722 -91 
Q 1428 -91 1123 -41 
Q 819 9 494 109 
L 494 744 
Q 775 591 1075 516 
Q 1375 441 1709 441 
Q 2250 441 2565 725 
Q 2881 1009 2881 1497 
Q 2881 1984 2565 2268 
Q 2250 2553 1709 2553 
Q 1456 2553 1204 2497 
Q 953 2441 691 2322 
L 691 4666 
z
" id="DejaVuSans-35" transform="scale(0.015625)"/>
       </defs>
       <use xlink:href="#DejaVuSans-30"/>
       <use x="63.623047" xlink:href="#DejaVuSans-2e"/>
       <use x="95.410156" xlink:href="#DejaVuSans-35"/>
      </g>
     </g>
    </g>
    <g id="ytick_3">
     <g id="line2d_10">
      <path clip-path="url(#pe0f689e548)" d="M 57.6 229.633066 
L 414.72 229.633066 
" style="fill:none;stroke:#b0b0b0;stroke-linecap:square;stroke-opacity:0.75;stroke-width:0.8;"/>
     </g>
     <g id="line2d_11">
      <g>
       <use style="stroke:#000000;stroke-width:0.8;" x="57.6" xlink:href="#m22455c1a4d" y="229.633066"/>
      </g>
     </g>
     <g id="text_9">
      <!-- 1.0 -->
      <g transform="translate(34.696875 233.432285)scale(0.1 -0.1)">
       <use xlink:href="#DejaVuSans-31"/>
       <use x="63.623047" xlink:href="#DejaVuSans-2e"/>
       <use x="95.410156" xlink:href="#DejaVuSans-30"/>
      </g>
     </g>
    </g>
    <g id="ytick_4">
     <g id="line2d_12">
      <path clip-path="url(#pe0f689e548)" d="M 57.6 190.657599 
L 414.72 190.657599 
" style="fill:none;stroke:#b0b0b0;stroke-linecap:square;stroke-opacity:0.75;stroke-width:0.8;"/>
     </g>
     <g id="line2d_13">
      <g>
       <use style="stroke:#000000;stroke-width:0.8;" x="57.6" xlink:href="#m22455c1a4d" y="190.657599"/>
      </g>
     </g>
     <g id="text_10">
      <!-- 1.5 -->
      <g transform="translate(34.696875 194.456818)scale(0.1 -0.1)">
       <use xlink:href="#DejaVuSans-31"/>
       <use x="63.623047" xlink:href="#DejaVuSans-2e"/>
       <use x="95.410156" xlink:href="#DejaVuSans-35"/>
      </g>
     </g>
    </g>
    <g id="ytick_5">
     <g id="line2d_14">
      <path clip-path="url(#pe0f689e548)" d="M 57.6 151.682133 
L 414.72 151.682133 
" style="fill:none;stroke:#b0b0b0;stroke-linecap:square;stroke-opacity:0.75;stroke-width:0.8;"/>
     </g>
     <g id="line2d_15">
      <g>
       <use style="stroke:#000000;stroke-width:0.8;" x="57.6" xlink:href="#m22455c1a4d" y="151.682133"/>
      </g>
     </g>
     <g id="text_11">
      <!-- 2.0 -->
      <g transform="translate(34.696875 155.481351)scale(0.1 -0.1)">
       <use xlink:href="#DejaVuSans-32"/>
       <use x="63.623047" xlink:href="#DejaVuSans-2e"/>
       <use x="95.410156" xlink:href="#DejaVuSans-30"/>
      </g>
     </g>
    </g>
    <g id="ytick_6">
     <g id="line2d_16">
      <path clip-path="url(#pe0f689e548)" d="M 57.6 112.706666 
L 414.72 112.706666 
" style="fill:none;stroke:#b0b0b0;stroke-linecap:square;stroke-opacity:0.75;stroke-width:0.8;"/>
     </g>
     <g id="line2d_17">
      <g>
       <use style="stroke:#000000;stroke-width:0.8;" x="57.6" xlink:href="#m22455c1a4d" y="112.706666"/>
      </g>
     </g>
     <g id="text_12">
      <!-- 2.5 -->
      <g transform="translate(34.696875 116.505884)scale(0.1 -0.1)">
       <use xlink:href="#DejaVuSans-32"/>
       <use x="63.623047" xlink:href="#DejaVuSans-2e"/>
       <use x="95.410156" xlink:href="#DejaVuSans-35"/>
      </g>
     </g>
    </g>
    <g id="ytick_7">
     <g id="line2d_18">
      <path clip-path="url(#pe0f689e548)" d="M 57.6 73.731199 
L 414.72 73.731199 
" style="fill:none;stroke:#b0b0b0;stroke-linecap:square;stroke-opacity:0.75;stroke-width:0.8;"/>
     </g>
     <g id="line2d_19">
      <g>
       <use style="stroke:#000000;stroke-width:0.8;" x="57.6" xlink:href="#m22455c1a4d" y="73.731199"/>
      </g>
     </g>
     <g id="text_13">
      <!-- 3.0 -->
      <g transform="translate(34.696875 77.530418)scale(0.1 -0.1)">
       <defs>
        <path d="M 2597 2516 
Q 3050 2419 3304 2112 
Q 3559 1806 3559 1356 
Q 3559 666 3084 287 
Q 2609 -91 1734 -91 
Q 1441 -91 1130 -33 
Q 819 25 488 141 
L 488 750 
Q 750 597 1062 519 
Q 1375 441 1716 441 
Q 2309 441 2620 675 
Q 2931 909 2931 1356 
Q 2931 1769 2642 2001 
Q 2353 2234 1838 2234 
L 1294 2234 
L 1294 2753 
L 1863 2753 
Q 2328 2753 2575 2939 
Q 2822 3125 2822 3475 
Q 2822 3834 2567 4026 
Q 2313 4219 1838 4219 
Q 1578 4219 1281 4162 
Q 984 4106 628 3988 
L 628 4550 
Q 988 4650 1302 4700 
Q 1616 4750 1894 4750 
Q 2613 4750 3031 4423 
Q 3450 4097 3450 3541 
Q 3450 3153 3228 2886 
Q 3006 2619 2597 2516 
z
" id="DejaVuSans-33" transform="scale(0.015625)"/>
       </defs>
       <use xlink:href="#DejaVuSans-33"/>
       <use x="63.623047" xlink:href="#DejaVuSans-2e"/>
       <use x="95.410156" xlink:href="#DejaVuSans-30"/>
      </g>
     </g>
    </g>
    <g id="text_14">
     <!-- # number -->
     <g transform="translate(28.617187 199.820969)rotate(-90)scale(0.1 -0.1)">
      <defs>
       <path d="M 3272 2816 
L 2363 2816 
L 2100 1772 
L 3016 1772 
L 3272 2816 
z
M 2803 4594 
L 2478 3297 
L 3391 3297 
L 3719 4594 
L 4219 4594 
L 3897 3297 
L 4872 3297 
L 4872 2816 
L 3775 2816 
L 3519 1772 
L 4513 1772 
L 4513 1294 
L 3397 1294 
L 3072 0 
L 2572 0 
L 2894 1294 
L 1978 1294 
L 1656 0 
L 1153 0 
L 1478 1294 
L 494 1294 
L 494 1772 
L 1594 1772 
L 1856 2816 
L 850 2816 
L 850 3297 
L 1978 3297 
L 2297 4594 
L 2803 4594 
z
" id="DejaVuSans-23" transform="scale(0.015625)"/>
       <path d="M 3513 2113 
L 3513 0 
L 2938 0 
L 2938 2094 
Q 2938 2591 2744 2837 
Q 2550 3084 2163 3084 
Q 1697 3084 1428 2787 
Q 1159 2491 1159 1978 
L 1159 0 
L 581 0 
L 581 3500 
L 1159 3500 
L 1159 2956 
Q 1366 3272 1645 3428 
Q 1925 3584 2291 3584 
Q 2894 3584 3203 3211 
Q 3513 2838 3513 2113 
z
" id="DejaVuSans-6e" transform="scale(0.015625)"/>
       <path d="M 3328 2828 
Q 3544 3216 3844 3400 
Q 4144 3584 4550 3584 
Q 5097 3584 5394 3201 
Q 5691 2819 5691 2113 
L 5691 0 
L 5113 0 
L 5113 2094 
Q 5113 2597 4934 2840 
Q 4756 3084 4391 3084 
Q 3944 3084 3684 2787 
Q 3425 2491 3425 1978 
L 3425 0 
L 2847 0 
L 2847 2094 
Q 2847 2600 2669 2842 
Q 2491 3084 2119 3084 
Q 1678 3084 1418 2786 
Q 1159 2488 1159 1978 
L 1159 0 
L 581 0 
L 581 3500 
L 1159 3500 
L 1159 2956 
Q 1356 3278 1631 3431 
Q 1906 3584 2284 3584 
Q 2666 3584 2933 3390 
Q 3200 3197 3328 2828 
z
" id="DejaVuSans-6d" transform="scale(0.015625)"/>
       <path d="M 3116 1747 
Q 3116 2381 2855 2742 
Q 2594 3103 2138 3103 
Q 1681 3103 1420 2742 
Q 1159 2381 1159 1747 
Q 1159 1113 1420 752 
Q 1681 391 2138 391 
Q 2594 391 2855 752 
Q 3116 1113 3116 1747 
z
M 1159 2969 
Q 1341 3281 1617 3432 
Q 1894 3584 2278 3584 
Q 2916 3584 3314 3078 
Q 3713 2572 3713 1747 
Q 3713 922 3314 415 
Q 2916 -91 2278 -91 
Q 1894 -91 1617 61 
Q 1341 213 1159 525 
L 1159 0 
L 581 0 
L 581 4863 
L 1159 4863 
L 1159 2969 
z
" id="DejaVuSans-62" transform="scale(0.015625)"/>
       <path d="M 2631 2963 
Q 2534 3019 2420 3045 
Q 2306 3072 2169 3072 
Q 1681 3072 1420 2755 
Q 1159 2438 1159 1844 
L 1159 0 
L 581 0 
L 581 3500 
L 1159 3500 
L 1159 2956 
Q 1341 3275 1631 3429 
Q 1922 3584 2338 3584 
Q 2397 3584 2469 3576 
Q 2541 3569 2628 3553 
L 2631 2963 
z
" id="DejaVuSans-72" transform="scale(0.015625)"/>
      </defs>
      <use xlink:href="#DejaVuSans-23"/>
      <use x="83.789062" xlink:href="#DejaVuSans-20"/>
      <use x="115.576172" xlink:href="#DejaVuSans-6e"/>
      <use x="178.955078" xlink:href="#DejaVuSans-75"/>
      <use x="242.333984" xlink:href="#DejaVuSans-6d"/>
      <use x="339.746094" xlink:href="#DejaVuSans-62"/>
      <use x="403.222656" xlink:href="#DejaVuSans-65"/>
      <use x="464.746094" xlink:href="#DejaVuSans-72"/>
     </g>
    </g>
    <g id="text_15">
     <!-- 1e6 -->
     <g transform="translate(57.6 38.472)scale(0.1 -0.1)">
      <use xlink:href="#DejaVuSans-31"/>
      <use x="63.623047" xlink:href="#DejaVuSans-65"/>
      <use x="125.146484" xlink:href="#DejaVuSans-36"/>
     </g>
    </g>
   </g>
   <g id="patch_43">
    <path d="M 57.6 307.584 
L 57.6 41.472 
" style="fill:none;stroke:#000000;stroke-linecap:square;stroke-linejoin:miter;stroke-width:0.8;"/>
   </g>
   <g id="patch_44">
    <path d="M 414.72 307.584 
L 414.72 41.472 
" style="fill:none;stroke:#000000;stroke-linecap:square;stroke-linejoin:miter;stroke-width:0.8;"/>
   </g>
   <g id="patch_45">
    <path d="M 57.6 307.584 
L 414.72 307.584 
" style="fill:none;stroke:#000000;stroke-linecap:square;stroke-linejoin:miter;stroke-width:0.8;"/>
   </g>
   <g id="patch_46">
    <path d="M 57.6 41.472 
L 414.72 41.472 
" style="fill:none;stroke:#000000;stroke-linecap:square;stroke-linejoin:miter;stroke-width:0.8;"/>
   </g>
   <g id="text_16">
    <!-- $\mu=$0.967$,\sigma=$0.077 -->
    <g transform="translate(107.509644 117.504)scale(0.1 -0.1)">
     <defs>
      <path d="M -84 -1331 
L 856 3500 
L 1434 3500 
L 1009 1322 
Q 997 1256 987 1175 
Q 978 1094 978 1013 
Q 978 722 1161 565 
Q 1344 409 1684 409 
Q 2147 409 2431 671 
Q 2716 934 2816 1459 
L 3213 3500 
L 3788 3500 
L 3266 809 
Q 3253 750 3248 706 
Q 3244 663 3244 628 
Q 3244 531 3283 486 
Q 3322 441 3406 441 
Q 3438 441 3492 456 
Q 3547 472 3647 513 
L 3559 50 
Q 3422 -19 3297 -55 
Q 3172 -91 3053 -91 
Q 2847 -91 2730 40 
Q 2613 172 2613 403 
Q 2438 153 2195 31 
Q 1953 -91 1625 -91 
Q 1334 -91 1117 43 
Q 900 178 831 397 
L 494 -1331 
L -84 -1331 
z
" id="DejaVuSans-Oblique-3bc" transform="scale(0.015625)"/>
      <path d="M 678 2906 
L 4684 2906 
L 4684 2381 
L 678 2381 
L 678 2906 
z
M 678 1631 
L 4684 1631 
L 4684 1100 
L 678 1100 
L 678 1631 
z
" id="DejaVuSans-3d" transform="scale(0.015625)"/>
      <path d="M 703 97 
L 703 672 
Q 941 559 1184 500 
Q 1428 441 1663 441 
Q 2288 441 2617 861 
Q 2947 1281 2994 2138 
Q 2813 1869 2534 1725 
Q 2256 1581 1919 1581 
Q 1219 1581 811 2004 
Q 403 2428 403 3163 
Q 403 3881 828 4315 
Q 1253 4750 1959 4750 
Q 2769 4750 3195 4129 
Q 3622 3509 3622 2328 
Q 3622 1225 3098 567 
Q 2575 -91 1691 -91 
Q 1453 -91 1209 -44 
Q 966 3 703 97 
z
M 1959 2075 
Q 2384 2075 2632 2365 
Q 2881 2656 2881 3163 
Q 2881 3666 2632 3958 
Q 2384 4250 1959 4250 
Q 1534 4250 1286 3958 
Q 1038 3666 1038 3163 
Q 1038 2656 1286 2365 
Q 1534 2075 1959 2075 
z
" id="DejaVuSans-39" transform="scale(0.015625)"/>
      <path d="M 525 4666 
L 3525 4666 
L 3525 4397 
L 1831 0 
L 1172 0 
L 2766 4134 
L 525 4134 
L 525 4666 
z
" id="DejaVuSans-37" transform="scale(0.015625)"/>
      <path d="M 750 794 
L 1409 794 
L 1409 256 
L 897 -744 
L 494 -744 
L 750 256 
L 750 794 
z
" id="DejaVuSans-2c" transform="scale(0.015625)"/>
      <path d="M 2219 3044 
Q 1744 3044 1422 2700 
Q 1081 2341 969 1747 
Q 844 1119 1044 756 
Q 1241 397 1706 397 
Q 2166 397 2503 759 
Q 2844 1122 2966 1747 
Q 3075 2319 2881 2700 
Q 2700 3044 2219 3044 
z
M 2309 3503 
L 4219 3500 
L 4106 2925 
L 3463 2925 
Q 3706 2438 3575 1747 
Q 3406 888 2884 400 
Q 2359 -91 1609 -91 
Q 856 -91 525 400 
Q 194 888 363 1747 
Q 528 2609 1050 3097 
Q 1484 3503 2309 3503 
z
" id="DejaVuSans-Oblique-3c3" transform="scale(0.015625)"/>
     </defs>
     <use transform="translate(0 0.78125)" xlink:href="#DejaVuSans-Oblique-3bc"/>
     <use transform="translate(83.105469 0.78125)" xlink:href="#DejaVuSans-3d"/>
     <use transform="translate(186.376953 0.78125)" xlink:href="#DejaVuSans-30"/>
     <use transform="translate(250 0.78125)" xlink:href="#DejaVuSans-2e"/>
     <use transform="translate(281.787109 0.78125)" xlink:href="#DejaVuSans-39"/>
     <use transform="translate(345.410156 0.78125)" xlink:href="#DejaVuSans-36"/>
     <use transform="translate(409.033203 0.78125)" xlink:href="#DejaVuSans-37"/>
     <use transform="translate(472.65625 0.78125)" xlink:href="#DejaVuSans-2c"/>
     <use transform="translate(523.925781 0.78125)" xlink:href="#DejaVuSans-Oblique-3c3"/>
     <use transform="translate(606.787109 0.78125)" xlink:href="#DejaVuSans-3d"/>
     <use transform="translate(710.058594 0.78125)" xlink:href="#DejaVuSans-30"/>
     <use transform="translate(773.681641 0.78125)" xlink:href="#DejaVuSans-2e"/>
     <use transform="translate(805.46875 0.78125)" xlink:href="#DejaVuSans-30"/>
     <use transform="translate(869.091797 0.78125)" xlink:href="#DejaVuSans-37"/>
     <use transform="translate(930.964844 0.78125)" xlink:href="#DejaVuSans-37"/>
    </g>
   </g>
   <g id="text_17">
    <!-- Velocity Rule -->
    <g transform="translate(197.654063 35.472)scale(0.12 -0.12)">
     <defs>
      <path d="M 1831 0 
L 50 4666 
L 709 4666 
L 2188 738 
L 3669 4666 
L 4325 4666 
L 2547 0 
L 1831 0 
z
" id="DejaVuSans-56" transform="scale(0.015625)"/>
      <path d="M 1959 3097 
Q 1497 3097 1228 2736 
Q 959 2375 959 1747 
Q 959 1119 1226 758 
Q 1494 397 1959 397 
Q 2419 397 2687 759 
Q 2956 1122 2956 1747 
Q 2956 2369 2687 2733 
Q 2419 3097 1959 3097 
z
M 1959 3584 
Q 2709 3584 3137 3096 
Q 3566 2609 3566 1747 
Q 3566 888 3137 398 
Q 2709 -91 1959 -91 
Q 1206 -91 779 398 
Q 353 888 353 1747 
Q 353 2609 779 3096 
Q 1206 3584 1959 3584 
z
" id="DejaVuSans-6f" transform="scale(0.015625)"/>
      <path d="M 603 3500 
L 1178 3500 
L 1178 0 
L 603 0 
L 603 3500 
z
M 603 4863 
L 1178 4863 
L 1178 4134 
L 603 4134 
L 603 4863 
z
" id="DejaVuSans-69" transform="scale(0.015625)"/>
      <path d="M 1172 4494 
L 1172 3500 
L 2356 3500 
L 2356 3053 
L 1172 3053 
L 1172 1153 
Q 1172 725 1289 603 
Q 1406 481 1766 481 
L 2356 481 
L 2356 0 
L 1766 0 
Q 1100 0 847 248 
Q 594 497 594 1153 
L 594 3053 
L 172 3053 
L 172 3500 
L 594 3500 
L 594 4494 
L 1172 4494 
z
" id="DejaVuSans-74" transform="scale(0.015625)"/>
      <path d="M 2059 -325 
Q 1816 -950 1584 -1140 
Q 1353 -1331 966 -1331 
L 506 -1331 
L 506 -850 
L 844 -850 
Q 1081 -850 1212 -737 
Q 1344 -625 1503 -206 
L 1606 56 
L 191 3500 
L 800 3500 
L 1894 763 
L 2988 3500 
L 3597 3500 
L 2059 -325 
z
" id="DejaVuSans-79" transform="scale(0.015625)"/>
      <path d="M 2841 2188 
Q 3044 2119 3236 1894 
Q 3428 1669 3622 1275 
L 4263 0 
L 3584 0 
L 2988 1197 
Q 2756 1666 2539 1819 
Q 2322 1972 1947 1972 
L 1259 1972 
L 1259 0 
L 628 0 
L 628 4666 
L 2053 4666 
Q 2853 4666 3247 4331 
Q 3641 3997 3641 3322 
Q 3641 2881 3436 2590 
Q 3231 2300 2841 2188 
z
M 1259 4147 
L 1259 2491 
L 2053 2491 
Q 2509 2491 2742 2702 
Q 2975 2913 2975 3322 
Q 2975 3731 2742 3939 
Q 2509 4147 2053 4147 
L 1259 4147 
z
" id="DejaVuSans-52" transform="scale(0.015625)"/>
     </defs>
     <use xlink:href="#DejaVuSans-56"/>
     <use x="60.658203" xlink:href="#DejaVuSans-65"/>
     <use x="122.181641" xlink:href="#DejaVuSans-6c"/>
     <use x="149.964844" xlink:href="#DejaVuSans-6f"/>
     <use x="211.146484" xlink:href="#DejaVuSans-63"/>
     <use x="266.126953" xlink:href="#DejaVuSans-69"/>
     <use x="293.910156" xlink:href="#DejaVuSans-74"/>
     <use x="333.119141" xlink:href="#DejaVuSans-79"/>
     <use x="392.298828" xlink:href="#DejaVuSans-20"/>
     <use x="424.085938" xlink:href="#DejaVuSans-52"/>
     <use x="489.068359" xlink:href="#DejaVuSans-75"/>
     <use x="552.447266" xlink:href="#DejaVuSans-6c"/>
     <use x="580.230469" xlink:href="#DejaVuSans-65"/>
    </g>
   </g>
  </g>
 </g>
 <defs>
  <clipPath id="pe0f689e548">
   <rect height="266.112" width="357.12" x="57.6" y="41.472"/>
  </clipPath>
 </defs>
</svg>
